<svg width="657.9px" height="122px" xmlns="http://www.w3.org/2000/svg" viewBox="-78.94687499999998 14 657.89375 122" style="background: rgba(0, 0, 0, 0)" preserveAspectRatio="xMidYMid"><defs><linearGradient id="editing-gradient-gradient" x1="0" x2="1" y1="0.5" y2="0.5" gradientUnits="objectBoundingBox"><stop offset="0" stop-color="#591b59"></stop><stop offset="1" stop-color="#00ffff"></stop></linearGradient></defs><g><g transform="matrix(1.2,0,0,1.4,-22.3,149.3)"><path d="M -0.8 -25.5 L -14.8 -25.5 L -6.7 -67.7 L 7.4 -67.7 L -0.8 -25.5 Z M 54.9 -24.2 L 54.9 -24.2 L 54.9 -24.2 Q 47.2 -24.2 47.2 -30.2 L 47.2 -30.2 L 47.2 -30.2 Q 47.2 -32.8 48.3 -37.9 L 48.3 -37.9 L 48.3 -37.9 Q 49.4 -43 49.8 -45 L 49.8 -45 L 49.8 -45 Q 50.7 -49.7 50.7 -51.2 L 50.7 -51.2 L 50.7 -51.2 Q 50.7 -54.4 48.3 -54.4 L 48.3 -54.4 L 48.3 -54.4 Q 46.7 -54.4 45.1 -52.2 L 45.1 -52.2 L 45.1 -52.2 Q 43.6 -50 42.9 -45.6 L 42.9 -45.6 L 38.9 -25.5 L 26.4 -24.2 L 29.9 -41.6 L 29.9 -41.6 Q 30.5 -44.5 31 -47.7 L 31 -47.7 L 31 -47.7 Q 31.5 -51 31.5 -51.5 L 31.5 -51.5 L 31.5 -51.5 Q 31.5 -54.4 29.3 -54.4 L 29.3 -54.4 L 29.3 -54.4 Q 27.8 -54.4 26.2 -52.3 L 26.2 -52.3 L 26.2 -52.3 Q 24.6 -50.1 23.7 -45.6 L 23.7 -45.6 L 19.8 -25.5 L 7.2 -24.2 L 14 -58.1 L 24.4 -59.4 L 23.3 -52.9 L 23.3 -52.9 Q 25 -56.4 28 -57.9 L 28 -57.9 L 28 -57.9 Q 31.1 -59.4 35.9 -59.4 L 35.9 -59.4 L 35.9 -59.4 Q 38.7 -59.4 40.5 -58 L 40.5 -58 L 40.5 -58 Q 42.2 -56.7 42.8 -54.5 L 42.8 -54.5 L 42.8 -54.5 Q 43.9 -56.8 46.7 -58.1 L 46.7 -58.1 L 46.7 -58.1 Q 49.5 -59.4 52.9 -59.4 L 52.9 -59.4 L 52.9 -59.4 Q 56.3 -59.4 58 -58.6 L 58 -58.6 L 58 -58.6 Q 59.7 -57.9 60.7 -56.7 L 60.7 -56.7 L 60.7 -56.7 Q 62.5 -54.4 62.5 -50.4 L 62.5 -50.4 L 62.5 -50.4 Q 62.5 -46.3 60.7 -37.9 L 60.7 -37.9 L 60.7 -37.9 Q 59.8 -33.8 59.8 -32.3 L 59.8 -32.3 L 59.8 -32.3 Q 59.8 -30.8 60.7 -29.9 L 60.7 -29.9 L 60.7 -29.9 Q 61.6 -29 62.9 -28.9 L 62.9 -28.9 L 62.9 -28.9 Q 62.2 -26.7 60 -25.5 L 60 -25.5 L 60 -25.5 Q 57.8 -24.2 54.9 -24.2 Z M 70.6 -27.4 L 70.6 -27.4 L 70.6 -27.4 Q 69.1 -29 68.4 -31.7 L 68.4 -31.7 L 68.4 -31.7 Q 67.7 -34.3 67.7 -38.6 L 67.7 -38.6 L 67.7 -38.6 Q 67.7 -42.9 69.2 -46.8 L 69.2 -46.8 L 69.2 -46.8 Q 70.7 -50.7 73.3 -53.5 L 73.3 -53.5 L 73.3 -53.5 Q 78.9 -59.4 87.9 -59.4 L 87.9 -59.4 L 87.9 -59.4 Q 91.2 -59.4 93.6 -58.3 L 93.6 -58.3 L 104.5 -59.4 L 99.8 -34.4 L 99.8 -34.4 Q 99.6 -33.6 99.6 -32.2 L 99.6 -32.2 L 99.6 -32.2 Q 99.6 -30.8 100.5 -29.9 L 100.5 -29.9 L 100.5 -29.9 Q 101.3 -29 102.6 -28.9 L 102.6 -28.9 L 102.6 -28.9 Q 102 -26.7 99.6 -25.5 L 99.6 -25.5 L 99.6 -25.5 Q 97.3 -24.2 94.7 -24.2 L 94.7 -24.2 L 94.7 -24.2 Q 92 -24.2 90.3 -25.2 L 90.3 -25.2 L 90.3 -25.2 Q 88.5 -26.2 88 -27.8 L 88 -27.8 L 88 -27.8 Q 87 -26.2 84.8 -25.2 L 84.8 -25.2 L 84.8 -25.2 Q 82.6 -24.2 79.7 -24.2 L 79.7 -24.2 L 79.7 -24.2 Q 76.8 -24.2 74.4 -24.9 L 74.4 -24.9 L 74.4 -24.9 Q 72.1 -25.7 70.6 -27.4 Z M 84.1 -53.4 L 84.1 -53.4 L 84.1 -53.4 Q 83.3 -52.2 82.7 -50.3 L 82.7 -50.3 L 82.7 -50.3 Q 82.1 -48.3 81 -43.1 L 81 -43.1 L 81 -43.1 Q 79.9 -37.9 79.9 -34.2 L 79.9 -34.2 L 79.9 -34.2 Q 79.9 -30.4 80.5 -29.4 L 80.5 -29.4 L 80.5 -29.4 Q 81.1 -28.3 82.1 -28.3 L 82.1 -28.3 L 82.1 -28.3 Q 84.2 -28.3 85.7 -30.2 L 85.7 -30.2 L 85.7 -30.2 Q 87.2 -32.2 87.7 -35.6 L 87.7 -35.6 L 91.1 -54.4 L 91.1 -54.4 Q 89.8 -55.5 88.2 -55.5 L 88.2 -55.5 L 88.2 -55.5 Q 86.7 -55.5 85.7 -55 L 85.7 -55 L 85.7 -55 Q 84.8 -54.5 84.1 -53.4 Z M 112.3 -52.2 L 112.3 -52.2 L 112.3 -52.2 Q 114.4 -55.3 117.7 -57.3 L 117.7 -57.3 L 117.7 -57.3 Q 121 -59.4 125.1 -59.4 L 125.1 -59.4 L 125.1 -59.4 Q 129.1 -59.4 131 -58.1 L 131 -58.1 L 143.6 -59.4 L 139.2 -34.8 L 139.2 -34.8 Q 137 -22.3 132.2 -17.3 L 132.2 -17.3 L 132.2 -17.3 Q 127.7 -12.7 118.9 -12.7 L 118.9 -12.7 L 118.9 -12.7 Q 112.1 -12.7 108.3 -14.8 L 108.3 -14.8 L 108.3 -14.8 Q 104.5 -16.9 104.5 -20.4 L 104.5 -20.4 L 104.5 -20.4 Q 104.5 -23 106.4 -24.5 L 106.4 -24.5 L 106.4 -24.5 Q 108.4 -26 111.5 -26 L 111.5 -26 L 111.5 -26 Q 114.2 -26 116.2 -24.8 L 116.2 -24.8 L 116.2 -24.8 Q 117.4 -24.2 118 -23.3 L 118 -23.3 L 118 -23.3 Q 116.5 -22 116.5 -19.9 L 116.5 -19.9 L 116.5 -19.9 Q 116.5 -17.1 119.1 -17.1 L 119.1 -17.1 L 119.1 -17.1 Q 123.4 -17.1 125.8 -27.2 L 125.8 -27.2 L 125.8 -27.2 Q 126.5 -30 127.1 -32.8 L 127.1 -32.8 L 127.1 -32.8 Q 124.2 -29.2 117.7 -29.2 L 117.7 -29.2 L 117.7 -29.2 Q 113.2 -29.2 110.5 -31.4 L 110.5 -31.4 L 110.5 -31.4 Q 107.9 -33.6 107.9 -38.7 L 107.9 -38.7 L 107.9 -38.7 Q 107.9 -41.9 109 -45.5 L 109 -45.5 L 109 -45.5 Q 110.1 -49.1 112.3 -52.2 Z M 120.6 -38.5 L 120.6 -38.5 L 120.6 -38.5 Q 120.6 -34.2 122.8 -34.2 L 122.8 -34.2 L 122.8 -34.2 Q 124.4 -34.2 125.8 -35.8 L 125.8 -35.8 L 125.8 -35.8 Q 127 -37.2 127.4 -39.2 L 127.4 -39.2 L 130.7 -55.6 L 130.7 -55.6 Q 130.4 -55.7 130.1 -55.8 L 130.1 -55.8 L 130.1 -55.8 Q 129.4 -56 128.6 -56 L 128.6 -56 L 128.6 -56 Q 124.7 -56 122.4 -49.6 L 122.4 -49.6 L 122.4 -49.6 Q 120.6 -44.7 120.6 -38.5 Z M 172 -36.3 L 172 -36.3 L 172 -36.3 Q 173.6 -35.2 173.6 -32.8 L 173.6 -32.8 L 173.6 -32.8 Q 173.6 -30.4 172.4 -28.8 L 172.4 -28.8 L 172.4 -28.8 Q 171.1 -27.3 169.2 -26.3 L 169.2 -26.3 L 169.2 -26.3 Q 165.1 -24.2 160.6 -24.2 L 160.6 -24.2 L 160.6 -24.2 Q 156.2 -24.2 153.6 -25.1 L 153.6 -25.1 L 153.6 -25.1 Q 151 -26.1 149.3 -27.9 L 149.3 -27.9 L 149.3 -27.9 Q 145.9 -31.3 145.9 -37.5 L 145.9 -37.5 L 145.9 -37.5 Q 145.9 -47.2 151.2 -53 L 151.2 -53 L 151.2 -53 Q 156.8 -59.4 166.6 -59.4 L 166.6 -59.4 L 166.6 -59.4 Q 172.7 -59.4 175.7 -56.8 L 175.7 -56.8 L 175.7 -56.8 Q 177.9 -54.9 177.9 -51.8 L 177.9 -51.8 L 177.9 -51.8 Q 177.9 -40.5 158.5 -40.5 L 158.5 -40.5 L 158.5 -40.5 Q 158.2 -38.8 158.2 -37.4 L 158.2 -37.4 L 158.2 -37.4 Q 158.2 -34.5 159.5 -33.4 L 159.5 -33.4 L 159.5 -33.4 Q 160.8 -32.2 163.3 -32.2 L 163.3 -32.2 L 163.3 -32.2 Q 165.7 -32.2 168.3 -33.4 L 168.3 -33.4 L 168.3 -33.4 Q 170.9 -34.5 172 -36.3 Z M 158.9 -43.2 L 158.9 -43.2 L 158.9 -43.2 Q 163.5 -43.2 166.1 -46.1 L 166.1 -46.1 L 166.1 -46.1 Q 168.7 -48.8 168.7 -53 L 168.7 -53 L 168.7 -53 Q 168.7 -54.5 168.2 -55.3 L 168.2 -55.3 L 168.2 -55.3 Q 167.6 -56.1 166.5 -56.1 L 166.5 -56.1 L 166.5 -56.1 Q 165.4 -56.1 164.5 -55.7 L 164.5 -55.7 L 164.5 -55.7 Q 163.6 -55.3 162.6 -53.9 L 162.6 -53.9 L 162.6 -53.9 Q 160.3 -50.7 158.9 -43.2 Z M 199.2 -47.9 L 199.2 -47.9 L 199.2 -47.9 Q 200.1 -50.3 200.1 -52.3 L 200.1 -52.3 L 200.1 -52.3 Q 200.1 -56.1 197.1 -56.1 L 197.1 -56.1 L 197.1 -56.1 Q 195.5 -56.1 194.1 -54.7 L 194.1 -54.7 L 194.1 -54.7 Q 192.8 -53.2 192.8 -51.4 L 192.8 -51.4 L 192.8 -51.4 Q 192.8 -50.2 193.9 -49.1 L 193.9 -49.1 L 193.9 -49.1 Q 195.3 -47.7 199.1 -45.4 L 199.1 -45.4 L 199.1 -45.4 Q 202.9 -43.1 204.3 -41.2 L 204.3 -41.2 L 204.3 -41.2 Q 205.8 -39.3 205.8 -36.8 L 205.8 -36.8 L 205.8 -36.8 Q 205.8 -34.2 204.5 -31.8 L 204.5 -31.8 L 204.5 -31.8 Q 203.3 -29.4 201 -27.8 L 201 -27.8 L 201 -27.8 Q 196.2 -24.2 188.5 -24.2 L 188.5 -24.2 L 188.5 -24.2 Q 184.4 -24.2 181.2 -26.4 L 181.2 -26.4 L 181.2 -26.4 Q 178 -28.5 178 -31 L 178 -31 L 178 -31 Q 178 -33.5 179.8 -34.9 L 179.8 -34.9 L 179.8 -34.9 Q 181.6 -36.4 184.3 -36.4 L 184.3 -36.4 L 184.3 -36.4 Q 187 -36.4 188.7 -35.4 L 188.7 -35.4 L 188.7 -35.4 Q 187.8 -33.3 187.8 -31.9 L 187.8 -31.9 L 187.8 -31.9 Q 187.8 -27.6 191.4 -27.6 L 191.4 -27.6 L 191.4 -27.6 Q 193 -27.6 194 -28.6 L 194 -28.6 L 194 -28.6 Q 195 -29.6 195 -31.2 L 195 -31.2 L 195 -31.2 Q 195 -34.5 189.5 -37.9 L 189.5 -37.9 L 189.5 -37.9 Q 185 -40.9 184 -42 L 184 -42 L 184 -42 Q 182.3 -44.1 182.3 -46.6 L 182.3 -46.6 L 182.3 -46.6 Q 182.3 -49.2 183.5 -51.6 L 183.5 -51.6 L 183.5 -51.6 Q 184.7 -54.1 186.9 -55.8 L 186.9 -55.8 L 186.9 -55.8 Q 191.6 -59.4 199.7 -59.4 L 199.7 -59.4 L 199.7 -59.4 Q 203.9 -59.4 206.4 -57.7 L 206.4 -57.7 L 206.4 -57.7 Q 208.8 -56 208.8 -53.2 L 208.8 -53.2 L 208.8 -53.2 Q 208.8 -50.4 207.1 -48.8 L 207.1 -48.8 L 207.1 -48.8 Q 205.4 -47.2 202.4 -47.2 L 202.4 -47.2 L 202.4 -47.2 Q 200.3 -47.2 199.2 -47.9 Z M 250.3 -46.1 L 263.2 -47.2 L 263.2 -47.2 Q 258.6 -37.1 258.6 -25.4 L 258.6 -25.4 L 258.6 -25.4 Q 256.9 -24.2 254.4 -24.2 L 254.4 -24.2 L 254.4 -24.2 Q 251.8 -24.2 250.2 -25.4 L 250.2 -25.4 L 250.2 -25.4 Q 248.6 -26.5 248.3 -27.8 L 248.3 -27.8 L 248.3 -27.8 Q 246.7 -26.1 244.1 -25.1 L 244.1 -25.1 L 244.1 -25.1 Q 241.5 -24.2 238.8 -24.2 L 238.8 -24.2 L 238.8 -24.2 Q 236 -24.2 233.6 -25.1 L 233.6 -25.1 L 233.6 -25.1 Q 231.2 -26 229.4 -28 L 229.4 -28 L 229.4 -28 Q 225.3 -32.3 225.3 -40.6 L 225.3 -40.6 L 225.3 -40.6 Q 225.3 -53.4 232.1 -61 L 232.1 -61 L 232.1 -61 Q 239.2 -69 251.7 -69 L 251.7 -69 L 251.7 -69 Q 260.3 -69 263.4 -64.5 L 263.4 -64.5 L 263.4 -64.5 Q 264.3 -63.1 264.3 -61.4 L 264.3 -61.4 L 264.3 -61.4 Q 264.3 -59.7 263.6 -58.3 L 263.6 -58.3 L 263.6 -58.3 Q 262.9 -56.8 261.7 -55.7 L 261.7 -55.7 L 261.7 -55.7 Q 258.9 -53.1 255.6 -53.1 L 255.6 -53.1 L 255.6 -53.1 Q 254.2 -53.1 252.9 -53.6 L 252.9 -53.6 L 252.9 -53.6 Q 253.2 -55.5 253.2 -57.7 L 253.2 -57.7 L 253.2 -57.7 Q 253.2 -60 253 -61 L 253 -61 L 253 -61 Q 252.9 -62 252.5 -62.8 L 252.5 -62.8 L 252.5 -62.8 Q 251.7 -64.6 249.8 -64.6 L 249.8 -64.6 L 249.8 -64.6 Q 248 -64.6 246 -62.6 L 246 -62.6 L 246 -62.6 Q 244 -60.7 242.4 -57.5 L 242.4 -57.5 L 242.4 -57.5 Q 238.9 -50.3 238.9 -41.6 L 238.9 -41.6 L 238.9 -41.6 Q 238.9 -37.7 240.4 -34.9 L 240.4 -34.9 L 240.4 -34.9 Q 242.1 -31.8 245 -31.8 L 245 -31.8 L 245 -31.8 Q 246 -31.8 246.9 -32.3 L 246.9 -32.3 L 246.9 -32.3 Q 247.9 -32.8 248.3 -33.2 L 248.3 -33.2 L 250.3 -46.1 Z M 269.2 -27.4 L 269.2 -27.4 L 269.2 -27.4 Q 267.7 -29 267 -31.7 L 267 -31.7 L 267 -31.7 Q 266.3 -34.3 266.3 -38.6 L 266.3 -38.6 L 266.3 -38.6 Q 266.3 -42.9 267.8 -46.8 L 267.8 -46.8 L 267.8 -46.8 Q 269.3 -50.7 271.9 -53.5 L 271.9 -53.5 L 271.9 -53.5 Q 277.4 -59.4 286.5 -59.4 L 286.5 -59.4 L 286.5 -59.4 Q 289.8 -59.4 292.2 -58.3 L 292.2 -58.3 L 303.1 -59.4 L 298.4 -34.4 L 298.4 -34.4 Q 298.2 -33.6 298.2 -32.2 L 298.2 -32.2 L 298.2 -32.2 Q 298.2 -30.8 299 -29.9 L 299 -29.9 L 299 -29.9 Q 299.9 -29 301.2 -28.9 L 301.2 -28.9 L 301.2 -28.9 Q 300.5 -26.7 298.2 -25.5 L 298.2 -25.5 L 298.2 -25.5 Q 295.9 -24.2 293.3 -24.2 L 293.3 -24.2 L 293.3 -24.2 Q 290.6 -24.2 288.9 -25.2 L 288.9 -25.2 L 288.9 -25.2 Q 287.1 -26.2 286.6 -27.8 L 286.6 -27.8 L 286.6 -27.8 Q 285.6 -26.2 283.4 -25.2 L 283.4 -25.2 L 283.4 -25.2 Q 281.2 -24.2 278.3 -24.2 L 278.3 -24.2 L 278.3 -24.2 Q 275.4 -24.2 273 -24.9 L 273 -24.9 L 273 -24.9 Q 270.7 -25.7 269.2 -27.4 Z M 282.7 -53.4 L 282.7 -53.4 L 282.7 -53.4 Q 281.9 -52.2 281.3 -50.3 L 281.3 -50.3 L 281.3 -50.3 Q 280.6 -48.3 279.6 -43.1 L 279.6 -43.1 L 279.6 -43.1 Q 278.5 -37.9 278.5 -34.2 L 278.5 -34.2 L 278.5 -34.2 Q 278.5 -30.4 279.1 -29.4 L 279.1 -29.4 L 279.1 -29.4 Q 279.7 -28.3 280.7 -28.3 L 280.7 -28.3 L 280.7 -28.3 Q 282.8 -28.3 284.3 -30.2 L 284.3 -30.2 L 284.3 -30.2 Q 285.8 -32.2 286.3 -35.6 L 286.3 -35.6 L 289.7 -54.4 L 289.7 -54.4 Q 288.4 -55.5 286.8 -55.5 L 286.8 -55.5 L 286.8 -55.5 Q 285.3 -55.5 284.3 -55 L 284.3 -55 L 284.3 -55 Q 283.4 -54.5 282.7 -53.4 Z M 321.9 -29 L 321.9 -29 L 321.9 -29 Q 319.9 -24.2 313.5 -24.2 L 313.5 -24.2 L 313.5 -24.2 Q 310.3 -24.2 308.3 -26.4 L 308.3 -26.4 L 308.3 -26.4 Q 306.6 -28.3 306.6 -30.4 L 306.6 -30.4 L 306.6 -30.4 Q 306.6 -35.2 308.9 -45.7 L 308.9 -45.7 L 313.5 -70.3 L 326.5 -71.5 L 320.3 -39.2 L 320.3 -39.2 Q 319.2 -34.4 319.2 -32.8 L 319.2 -32.8 L 319.2 -32.8 Q 319.2 -29.1 321.9 -29 Z M 342.6 -29 L 342.6 -29 L 342.6 -29 Q 340.6 -24.2 334.3 -24.2 L 334.3 -24.2 L 334.3 -24.2 Q 331.1 -24.2 329 -26.4 L 329 -26.4 L 329 -26.4 Q 327.4 -28.3 327.4 -30.4 L 327.4 -30.4 L 327.4 -30.4 Q 327.4 -35.2 329.6 -45.7 L 329.6 -45.7 L 334.3 -70.3 L 347.3 -71.5 L 341.1 -39.2 L 341.1 -39.2 Q 340 -34.4 340 -32.8 L 340 -32.8 L 340 -32.8 Q 340 -29.1 342.6 -29 Z M 374 -36.3 L 374 -36.3 L 374 -36.3 Q 375.6 -35.2 375.6 -32.8 L 375.6 -32.8 L 375.6 -32.8 Q 375.6 -30.4 374.3 -28.8 L 374.3 -28.8 L 374.3 -28.8 Q 373.1 -27.3 371.1 -26.3 L 371.1 -26.3 L 371.1 -26.3 Q 367 -24.2 362.6 -24.2 L 362.6 -24.2 L 362.6 -24.2 Q 358.2 -24.2 355.6 -25.1 L 355.6 -25.1 L 355.6 -25.1 Q 353 -26.1 351.3 -27.9 L 351.3 -27.9 L 351.3 -27.9 Q 347.9 -31.3 347.9 -37.5 L 347.9 -37.5 L 347.9 -37.5 Q 347.9 -47.2 353.2 -53 L 353.2 -53 L 353.2 -53 Q 358.8 -59.4 368.6 -59.4 L 368.6 -59.4 L 368.6 -59.4 Q 374.7 -59.4 377.7 -56.8 L 377.7 -56.8 L 377.7 -56.8 Q 379.9 -54.9 379.9 -51.8 L 379.9 -51.8 L 379.9 -51.8 Q 379.9 -40.5 360.5 -40.5 L 360.5 -40.5 L 360.5 -40.5 Q 360.2 -38.8 360.2 -37.4 L 360.2 -37.4 L 360.2 -37.4 Q 360.2 -34.5 361.5 -33.4 L 361.5 -33.4 L 361.5 -33.4 Q 362.8 -32.2 365.3 -32.2 L 365.3 -32.2 L 365.3 -32.2 Q 367.7 -32.2 370.3 -33.4 L 370.3 -33.4 L 370.3 -33.4 Q 372.9 -34.5 374 -36.3 Z M 360.9 -43.2 L 360.9 -43.2 L 360.9 -43.2 Q 365.4 -43.2 368.1 -46.1 L 368.1 -46.1 L 368.1 -46.1 Q 370.7 -48.8 370.7 -53 L 370.7 -53 L 370.7 -53 Q 370.7 -54.5 370.1 -55.3 L 370.1 -55.3 L 370.1 -55.3 Q 369.6 -56.1 368.5 -56.1 L 368.5 -56.1 L 368.5 -56.1 Q 367.4 -56.1 366.5 -55.7 L 366.5 -55.7 L 366.5 -55.7 Q 365.6 -55.3 364.6 -53.9 L 364.6 -53.9 L 364.6 -53.9 Q 362.2 -50.7 360.9 -43.2 Z M 402.1 -43.4 L 402.1 -43.4 L 402.1 -43.4 Q 404.4 -47.5 404.4 -51.7 L 404.4 -51.7 L 404.4 -51.7 Q 404.4 -54.4 402.4 -54.4 L 402.4 -54.4 L 402.4 -54.4 Q 400.9 -54.4 399.3 -51.8 L 399.3 -51.8 L 399.3 -51.8 Q 397.6 -49.2 397.1 -45.8 L 397.1 -45.8 L 393.8 -25.5 L 380.5 -24.2 L 387.1 -58.1 L 397.6 -59.4 L 396.5 -52.9 L 396.5 -52.9 Q 399.6 -59.4 406.7 -59.4 L 406.7 -59.4 L 406.7 -59.4 Q 410.4 -59.4 412.4 -57.5 L 412.4 -57.5 L 412.4 -57.5 Q 414.4 -55.5 414.4 -51.6 L 414.4 -51.6 L 414.4 -51.6 Q 414.4 -47.7 411.8 -45.2 L 411.8 -45.2 L 411.8 -45.2 Q 409.2 -42.7 404.8 -42.7 L 404.8 -42.7 L 404.8 -42.7 Q 402.9 -42.7 402.1 -43.4 Z M 435.8 -32.7 L 435.8 -32.7 L 435.8 -32.7 Q 432.5 -29.2 426.4 -29.2 L 426.4 -29.2 L 426.4 -29.2 Q 418.8 -29.2 417.2 -34.8 L 417.2 -34.8 L 417.2 -34.8 Q 416.6 -36.5 416.6 -38.3 L 416.6 -38.3 L 416.6 -38.3 Q 416.6 -40.2 417 -42.1 L 417 -42.1 L 420 -58.1 L 433 -59.4 L 429.5 -40.8 L 429.5 -40.8 Q 429.4 -39.9 429.2 -39 L 429.2 -39 L 429.2 -39 Q 429 -38.1 429 -37.2 L 429 -37.2 L 429 -37.2 Q 429 -36.3 429.3 -35.7 L 429.3 -35.7 L 429.3 -35.7 Q 429.6 -35.1 430.1 -34.7 L 430.1 -34.7 L 430.1 -34.7 Q 430.9 -34.2 432.2 -34.2 L 432.2 -34.2 L 432.2 -34.2 Q 433.6 -34.2 434.8 -35.8 L 434.8 -35.8 L 434.8 -35.8 Q 436 -37.5 436.5 -40.4 L 436.5 -40.4 L 440.1 -58.1 L 452.7 -59.4 L 447.9 -34.2 L 447.9 -34.2 Q 445.5 -21.9 440.6 -17.1 L 440.6 -17.1 L 440.6 -17.1 Q 438.1 -14.6 434.9 -13.6 L 434.9 -13.6 L 434.9 -13.6 Q 431.7 -12.6 427.5 -12.6 L 427.5 -12.6 L 427.5 -12.6 Q 420.8 -12.6 417 -14.7 L 417 -14.7 L 417 -14.7 Q 413.1 -16.8 413.1 -20.3 L 413.1 -20.3 L 413.1 -20.3 Q 413.1 -23 415.1 -24.5 L 415.1 -24.5 L 415.1 -24.5 Q 417.1 -26 420.2 -26 L 420.2 -26 L 420.2 -26 Q 422.9 -26 424.9 -24.8 L 424.9 -24.8 L 424.9 -24.8 Q 426.1 -24.1 426.7 -23.2 L 426.7 -23.2 L 426.7 -23.2 Q 425.2 -21.9 425.2 -19.8 L 425.2 -19.8 L 425.2 -19.8 Q 425.2 -17 427.8 -17 L 427.8 -17 L 427.8 -17 Q 432 -17 434.4 -26.7 L 434.4 -26.7 L 434.4 -26.7 Q 435.1 -29.6 435.8 -32.7 Z" fill="url(#editing-gradient-gradient)"></path></g></g><style>text {
  font-size: 64px;
  font-family: Arial Black;
  dominant-baseline: central;
  text-anchor: middle;
}</style></svg>